<svg width="60" height="26" viewBox="0 0 60 26" fill="none" xmlns="http://www.w3.org/2000/svg">
<path d="M11.3624 3.77359C11.9974 3.00639 12.4471 1.96142 12.4471 0.903217C12.4471 0.757714 12.4339 0.612212 12.4074 0.493164C11.3757 0.532847 10.1323 1.18099 9.39153 2.05401C8.80952 2.71539 8.2672 3.77359 8.2672 4.83179C8.2672 4.99052 8.29365 5.14925 8.30688 5.20216C8.37302 5.21539 8.47884 5.22861 8.58466 5.22861C9.51058 5.22861 10.6746 4.60692 11.3624 3.77359ZM12.0899 5.45348C10.5423 5.45348 9.28571 6.39263 8.47884 6.39263C7.61905 6.39263 6.49471 5.50639 5.1455 5.50639C2.59259 5.50639 0 7.62279 0 11.6043C0 14.091 0.952381 16.7101 2.14286 18.4032C3.16138 19.8318 4.04762 21.009 5.33069 21.009C6.60053 21.009 7.15608 20.1625 8.73016 20.1625C10.3307 20.1625 10.6878 20.9826 12.0899 20.9826C13.4788 20.9826 14.4048 19.7127 15.2778 18.4561C16.2566 17.0143 16.6667 15.6122 16.6799 15.5461C16.6005 15.5196 13.9418 14.435 13.9418 11.3926C13.9418 8.76036 16.0317 7.58311 16.1508 7.49052C14.7751 5.50639 12.672 5.45348 12.0899 5.45348Z" fill="#130130"/>
<path d="M19.3651 20.8635H22.328V14.3424H26.4683C30.2116 14.3424 32.8042 11.7895 32.8042 8.0593V8.03285C32.8042 4.28946 30.2116 1.77623 26.4683 1.77623H19.3651V20.8635ZM25.7275 4.27623C28.3069 4.27623 29.7884 5.66512 29.7884 8.04607V8.07253C29.7884 10.4667 28.3069 11.8556 25.7275 11.8556H22.328V4.27623H25.7275Z" fill="#130130"/>
<path d="M38.0291 21.1149C39.8677 21.1149 41.4815 20.1625 42.2884 18.6678H42.3413V20.8635H45.2116V11.2736C45.2116 8.48258 43.0556 6.68364 39.6561 6.68364C36.2302 6.68364 34.1534 8.52226 33.955 10.9164L33.9418 11.0619H36.6402L36.6667 10.9429C36.9048 9.83179 37.9233 9.05136 39.5767 9.05136C41.3492 9.05136 42.3413 9.97729 42.3413 11.5117V12.5567L38.5582 12.7815C35.2645 12.9799 33.3862 14.4614 33.3862 16.8821V16.9085C33.3862 19.4085 35.2513 21.1149 38.0291 21.1149ZM36.2698 16.8424V16.8159C36.2698 15.6387 37.2222 14.8847 38.9418 14.7789L42.3413 14.5672V15.6519C42.3413 17.4641 40.8201 18.8265 38.8095 18.8265C37.2751 18.8265 36.2698 18.0593 36.2698 16.8424Z" fill="#130130"/>
<path d="M49.6032 25.5064C52.328 25.5064 53.7831 24.3953 54.8148 21.5117L60 6.94819H56.9841L53.4788 18.2709H53.3862L49.881 6.94819H46.7857L51.8518 20.8768L51.6138 21.5381C51.1376 22.8873 50.3968 23.2445 49.0476 23.2445C48.664 23.2445 48.3333 23.1916 48.1085 23.1387V25.3741C48.4524 25.4403 49.0476 25.5064 49.6032 25.5064Z" fill="#130130"/>
</svg>
