<svg width="62" height="24" viewBox="0 0 62 24" fill="none" xmlns="http://www.w3.org/2000/svg">
<path d="M28.9511 11.6726V18.7486H26.6903V1.2749H32.6838C34.2028 1.2749 35.4981 1.77783 36.5578 2.78368C37.6411 3.78952 38.1828 5.01759 38.1828 6.46788C38.1828 7.95326 37.6411 9.18133 36.5578 10.1755C35.5098 11.1696 34.2146 11.6609 32.6838 11.6609H28.9511V11.6726ZM28.9511 3.42695V9.52051H32.7309C33.6258 9.52051 34.3794 9.21642 34.9682 8.61993C35.5687 8.02343 35.8749 7.29829 35.8749 6.47957C35.8749 5.67256 35.5687 4.95911 34.9682 4.36262C34.3794 3.74274 33.6376 3.43864 32.7309 3.43864H28.9511V3.42695Z" fill="#130130"/>
<path d="M44.0939 6.39746C45.766 6.39746 47.0848 6.8419 48.0503 7.73079C49.0159 8.61968 49.4987 9.83606 49.4987 11.3799V18.7483H47.3438V17.0875H47.2496C46.3194 18.4559 45.0712 19.1343 43.5169 19.1343C42.1864 19.1343 41.0795 18.7483 40.1846 17.9647C39.2897 17.1811 38.8422 16.2103 38.8422 15.0407C38.8422 13.801 39.3132 12.8185 40.2552 12.0934C41.1972 11.3565 42.4572 10.9939 44.0233 10.9939C45.3656 10.9939 46.4725 11.2396 47.3321 11.7308V11.2162C47.3321 10.4325 47.0259 9.77757 46.4018 9.22787C45.7778 8.67816 45.0477 8.40915 44.2117 8.40915C42.9517 8.40915 41.9508 8.93547 41.2208 9.9998L39.2308 8.76003C40.3259 7.18108 41.9509 6.39746 44.0939 6.39746ZM41.1737 15.0758C41.1737 15.6606 41.421 16.1518 41.9273 16.5378C42.4219 16.9238 43.0106 17.1226 43.6818 17.1226C44.6356 17.1226 45.4834 16.7717 46.2252 16.07C46.967 15.3682 47.3438 14.5495 47.3438 13.6021C46.6373 13.0524 45.66 12.7717 44.4001 12.7717C43.4816 12.7717 42.7162 12.9939 42.1039 13.4267C41.4798 13.8828 41.1737 14.4325 41.1737 15.0758Z" fill="#130130"/>
<path d="M61.7919 6.78369L54.2558 24.0001H51.9244L54.7268 17.9767L49.7578 6.78369H52.2187L55.7984 15.3685H55.8455L59.3309 6.78369H61.7919Z" fill="#130130"/>
<path d="M19.9586 10.2456C19.9586 9.51343 19.8927 8.81284 19.7702 8.13916H10.2936V11.9988L15.7514 12C15.53 13.2842 14.8176 14.3789 13.7261 15.1087V17.6128H16.9748C18.8718 15.869 19.9586 13.2912 19.9586 10.2456Z" fill="#4285F4"/>
<path d="M13.7272 15.1085C12.8229 15.7144 11.6583 16.0688 10.2959 16.0688C7.66421 16.0688 5.43166 14.3074 4.63213 11.9331H1.28094V14.5156C2.94123 17.7881 6.35365 20.0337 10.2959 20.0337C13.0207 20.0337 15.3098 19.1436 16.9759 17.6115L13.7272 15.1085Z" fill="#34A853"/>
<path d="M4.31654 10.0175C4.31654 9.35081 4.4284 8.70637 4.63211 8.10052V5.51807H1.28093C0.594442 6.87128 0.208221 8.39877 0.208221 10.0175C0.208221 11.6362 0.59562 13.1637 1.28093 14.5169L4.63211 11.9344C4.4284 11.3286 4.31654 10.6841 4.31654 10.0175Z" fill="#FABB05"/>
<path d="M10.2959 3.96491C11.7831 3.96491 13.1149 4.47368 14.1664 5.46783L17.0454 2.61052C15.2968 0.992982 13.0172 0 10.2959 0C6.35482 0 2.94123 2.24561 1.28094 5.51812L4.63213 8.10058C5.43166 5.72631 7.66421 3.96491 10.2959 3.96491Z" fill="#E94235"/>
</svg>
