<svg width="100" height="40" viewBox="0 0 100 40" fill="none" xmlns="http://www.w3.org/2000/svg">
<path fill-rule="evenodd" clip-rule="evenodd" d="M12.4452 30.7281V21.1021H12.2943C12.0621 21.6018 11.7332 22.0975 11.3075 22.5893C10.8896 23.0734 10.3439 23.4754 9.67058 23.7955C9.00498 24.1156 8.19233 24.2756 7.23262 24.2756C5.8782 24.2756 4.65148 23.9243 3.55246 23.2217C2.46118 22.5113 1.59435 21.469 0.951967 20.095C0.317322 18.7132 0 17.0191 0 15.0127C0 12.9517 0.328932 11.2381 0.986794 9.87185C1.64466 8.49784 2.51923 7.47123 3.61051 6.79202C4.70952 6.10501 5.91303 5.76151 7.22101 5.76151C8.21942 5.76151 9.05142 5.93326 9.71702 6.27677C10.3904 6.61246 10.9321 7.03404 11.3423 7.54149C11.7603 8.04113 12.0776 8.53297 12.2943 9.017H12.5033V5.99572H17.3792V30.7281H12.4452ZM8.79988 20.3058C9.59706 20.3058 10.2704 20.0872 10.8199 19.65C11.3772 19.205 11.8028 18.5844 12.0969 17.7881C12.3988 16.9918 12.5497 16.0588 12.5497 14.9893C12.5497 13.9197 12.4026 12.9907 12.1085 12.2022C11.8144 11.4137 11.3888 10.8048 10.8315 10.3754C10.2743 9.94602 9.59706 9.73133 8.79988 9.73133C7.98723 9.73133 7.30228 9.95383 6.74503 10.3988C6.18778 10.8438 5.76597 11.4606 5.47961 12.2491C5.19325 13.0376 5.05007 13.951 5.05007 14.9893C5.05007 16.0354 5.19325 16.9605 5.47961 17.7647C5.77371 18.561 6.19552 19.1855 6.74503 19.6383C7.30228 20.0833 7.98723 20.3058 8.79988 20.3058ZM21.4425 23.9829V0H30.9621C32.7113 0 34.1702 0.261532 35.3388 0.784596C36.5075 1.30766 37.386 2.0337 37.9742 2.96273C38.5624 3.88394 38.8565 4.94569 38.8565 6.14795C38.8565 7.08478 38.6707 7.90841 38.2992 8.61884C37.9277 9.32147 37.4169 9.89918 36.7668 10.352C36.1244 10.797 35.3892 11.1132 34.561 11.3005V11.5347C35.4666 11.5738 36.314 11.8314 37.1035 12.3076C37.9006 12.7838 38.5469 13.4513 39.0422 14.3101C39.5376 15.161 39.7852 16.1759 39.7852 17.3548C39.7852 18.6273 39.4718 19.7632 38.8449 20.7625C38.2257 21.754 37.3086 22.5386 36.0935 23.1163C34.8783 23.694 33.3807 23.9829 31.6006 23.9829H21.4425ZM26.4693 19.8374H30.5674C31.9683 19.8374 32.9899 19.5681 33.6323 19.0294C34.2747 18.4829 34.5958 17.7568 34.5958 16.8512C34.5958 16.1877 34.4372 15.6021 34.1199 15.0947C33.8025 14.5872 33.3498 14.1891 32.7616 13.9002C32.1811 13.6114 31.4884 13.4669 30.6835 13.4669H26.4693V19.8374ZM26.4693 10.0358H30.1959C30.8847 10.0358 31.4962 9.91479 32.0302 9.67278C32.572 9.42296 32.9976 9.07165 33.3072 8.61884C33.6245 8.16604 33.7832 7.62346 33.7832 6.9911C33.7832 6.12453 33.4775 5.42581 32.8661 4.89494C32.2624 4.36407 31.4033 4.09863 30.2888 4.09863H26.4693V10.0358ZM51.0202 24.3342C49.2169 24.3342 47.6573 23.9477 46.3416 23.1749C45.0336 22.3942 44.0236 21.309 43.3116 19.9194C42.5995 18.5219 42.2435 16.902 42.2435 15.0596C42.2435 13.2015 42.5995 11.5777 43.3116 10.188C44.0236 8.7906 45.0336 7.70543 46.3416 6.93255C47.6573 6.15186 49.2169 5.76151 51.0202 5.76151C52.8235 5.76151 54.3791 6.15186 55.6871 6.93255C57.0028 7.70543 58.0167 8.7906 58.7288 10.188C59.2504 11.206 59.5809 12.3496 59.7204 13.6188H62.3693C62.5088 12.3496 62.8393 11.206 63.3609 10.188C64.0729 8.7906 65.083 7.70543 66.3909 6.93255C67.7067 6.15186 69.2662 5.76151 71.0695 5.76151C72.8728 5.76151 74.4285 6.15186 75.7365 6.93255C77.0522 7.70543 78.0661 8.7906 78.7781 10.188C79.4902 11.5777 79.8462 13.2015 79.8462 15.0596C79.8462 16.902 79.4902 18.5219 78.7781 19.9194C78.0661 21.309 77.0522 22.3942 75.7365 23.1749C74.4285 23.9477 72.8728 24.3342 71.0695 24.3342C69.2662 24.3342 67.7067 23.9477 66.3909 23.1749C65.083 22.3942 64.0729 21.309 63.3609 19.9194C62.8987 19.0122 62.5865 18.0112 62.4243 16.9165H59.6654C59.5032 18.0112 59.191 19.0122 58.7288 19.9194C58.0167 21.309 57.0028 22.3942 55.6871 23.1749C54.3791 23.9477 52.8235 24.3342 51.0202 24.3342ZM51.0434 20.4698C51.8638 20.4698 52.5487 20.2355 53.0982 19.7671C53.6478 19.2909 54.0618 18.6429 54.3404 17.8232C54.6268 17.0035 54.77 16.0706 54.77 15.0244C54.77 13.9783 54.6268 13.0454 54.3404 12.2256C54.0618 11.4059 53.6478 10.7579 53.0982 10.2817C52.5487 9.8055 51.8638 9.56738 51.0434 9.56738C50.2153 9.56738 49.5187 9.8055 48.9537 10.2817C48.3965 10.7579 47.9747 11.4059 47.6883 12.2256C47.4097 13.0454 47.2704 13.9783 47.2704 15.0244C47.2704 16.0706 47.4097 17.0035 47.6883 17.8232C47.9747 18.6429 48.3965 19.2909 48.9537 19.7671C49.5187 20.2355 50.2153 20.4698 51.0434 20.4698ZM71.0927 20.4698C71.9131 20.4698 72.5981 20.2355 73.1476 19.7671C73.6971 19.2909 74.1112 18.6429 74.3898 17.8232C74.6761 17.0035 74.8193 16.0706 74.8193 15.0244C74.8193 13.9783 74.6761 13.0454 74.3898 12.2256C74.1112 11.4059 73.6971 10.7579 73.1476 10.2817C72.5981 9.8055 71.9131 9.56738 71.0927 9.56738C70.2646 9.56738 69.568 9.8055 69.003 10.2817C68.4458 10.7579 68.024 11.4059 67.7376 12.2256C67.459 13.0454 67.3197 13.9783 67.3197 15.0244C67.3197 16.0706 67.459 17.0035 67.7376 17.8232C68.024 18.6429 68.4458 19.2909 69.003 19.7671C69.568 20.2355 70.2646 20.4698 71.0927 20.4698ZM88.0075 23.9829V18.272L89.3478 16.7283L94.2069 23.9829H100L93.0497 13.7872L99.6633 5.99572H93.9864L88.2746 12.8229H88.0075V0H83.062V23.9829H88.0075ZM66.5536 33.0814C65.1523 34.495 63.2516 35.2891 61.2698 35.2891C59.288 35.2891 57.3874 34.495 55.986 33.0814C54.5847 31.6679 53.7974 29.7507 53.7974 27.7516H49.1271C49.1271 31.0001 50.4064 34.1155 52.6836 36.4125C54.9608 38.7095 58.0494 40 61.2698 40C64.4903 40 67.5788 38.7095 69.856 36.4125C72.1332 34.1155 73.4125 31.0001 73.4125 27.7516L68.7422 27.7516C68.7422 29.7507 67.955 31.6679 66.5536 33.0814Z" fill="#562EE5"/>
</svg>
