<svg width="22" height="24" viewBox="0 0 22 24" fill="none" xmlns="http://www.w3.org/2000/svg">
<path fill-rule="evenodd" clip-rule="evenodd" d="M13.5927 7.02513C13.0298 6.48776 12.3026 6.14317 11.5238 6.03588V12.0217C12.5814 12.1094 13.5738 12.4611 14.3335 13.0251C15.2179 13.6818 15.7143 14.5721 15.7143 15.5C15.7143 16.4279 15.2179 17.3182 14.3335 17.9749C13.4494 18.6312 12.2504 19 11 19C10.3809 19 9.76789 18.8836 9.19592 18.6575C8.62396 18.4313 8.10426 18.0998 7.6665 17.682C7.22874 17.2641 6.88148 16.768 6.64457 16.2221C6.40765 15.6761 6.28571 15.0909 6.28571 14.5C6.28571 14.3674 6.3409 14.2402 6.43914 14.1464C6.53737 14.0527 6.6706 14 6.80952 14C6.94845 14 7.08168 14.0527 7.17991 14.1464C7.27815 14.2402 7.33333 14.3674 7.33333 14.5C7.33333 14.9596 7.42818 15.4148 7.61244 15.8394C7.79671 16.264 8.06679 16.6499 8.40728 16.9749C8.74776 17.2999 9.15197 17.5577 9.59683 17.7336C9.87939 17.8453 10.1748 17.9226 10.4762 17.9641V12.9783C10.0369 12.9419 9.60588 12.8596 9.19592 12.7336C8.62395 12.5577 8.10425 12.2999 7.6665 11.9749C7.22872 11.6499 6.88148 11.264 6.64457 10.8394C6.40764 10.4147 6.28571 9.95961 6.28571 9.5C6.28571 8.30653 6.7824 7.16193 7.6665 6.31802C8.5506 5.47411 9.74969 5 11 5C12.2503 5 13.4494 5.47411 14.3335 6.31802C15.2176 7.16193 15.7143 8.30653 15.7143 9.5C15.7143 9.63261 15.6591 9.75979 15.5609 9.85355C15.4626 9.94732 15.3294 10 15.1905 10C15.0516 10 14.9183 9.94732 14.8201 9.85355C14.7219 9.75979 14.6667 9.63261 14.6667 9.5C14.6667 8.57174 14.2804 7.6815 13.5927 7.02513ZM8.40728 7.02513C8.97023 6.48776 9.6974 6.14317 10.4762 6.03588V11.9738C10.1453 11.9404 9.82272 11.8757 9.51717 11.7818C9.05189 11.6387 8.64313 11.4331 8.30967 11.1855C7.97647 10.9381 7.73022 10.6579 7.56923 10.3693C7.40916 10.0824 7.33333 9.78796 7.33333 9.5C7.33333 8.57174 7.71964 7.6815 8.40728 7.02513ZM11.5238 17.9738V13.0262C12.3649 13.1108 13.1265 13.3959 13.6903 13.8145C14.3627 14.3137 14.6667 14.9293 14.6667 15.5C14.6667 16.0707 14.3627 16.6863 13.6903 17.1855C13.1265 17.6041 12.3649 17.8892 11.5238 17.9738Z" fill="#562EE5"/>
<path fill-rule="evenodd" clip-rule="evenodd" d="M0 7C0 3.13401 3.28325 0 7.33333 0H14.6667C18.7168 0 22 3.13401 22 7V17C22 20.866 18.7168 24 14.6667 24H7.33333C3.28325 24 0 20.866 0 17V7ZM7.33333 1H14.6667C18.1382 1 20.9524 3.68629 20.9524 7V17C20.9524 20.3137 18.1382 23 14.6667 23H7.33333C3.86183 23 1.04762 20.3137 1.04762 17V7C1.04762 3.68629 3.86183 1 7.33333 1Z" fill="#562EE5"/>
</svg>
