<svg width="22" height="20" viewBox="0 0 22 20" fill="none" xmlns="http://www.w3.org/2000/svg">
<path d="M10.5 1.77669L5.59766 6.91904C5.40454 7.12155 5.08801 7.12521 4.8905 6.92721C4.69312 6.7292 4.68958 6.4045 4.88257 6.20202L10.6011 0.20367C10.6924 0.0799404 10.837 0 11 0C11.1495 0 11.2838 0.0673891 11.3755 0.174216C11.384 0.184013 11.3921 0.194029 11.3998 0.204327C11.4082 0.210931 11.4166 0.217817 11.4247 0.225048C11.4338 0.233092 11.4427 0.241511 11.4513 0.250369L17.2175 6.16452C17.4128 6.36481 17.4128 6.68948 17.2175 6.88977C17.0223 7.09003 16.7057 7.09003 16.5105 6.88977L11.5 1.75086V13.8462C11.5 14.1294 11.2761 14.359 11 14.359C10.7239 14.359 10.5 14.1294 10.5 13.8462V1.77669Z" fill="#562EE5"/>
<path d="M7.5 20C3.35791 20 0 16.556 0 12.3077V11.7949C0 11.5116 0.223877 11.2821 0.5 11.2821C0.776123 11.2821 1 11.5116 1 11.7949V12.3077C1 15.9896 3.91016 18.9744 7.5 18.9744H14.5C18.0898 18.9744 21 15.9896 21 12.3077V11.7949C21 11.5116 21.2239 11.2821 21.5 11.2821C21.7761 11.2821 22 11.5116 22 11.7949V12.3077C22 16.556 18.6421 20 14.5 20H7.5Z" fill="#562EE5"/>
</svg>
