<svg width="25" height="18" viewBox="0 0 25 18" fill="none" xmlns="http://www.w3.org/2000/svg">
<path fill-rule="evenodd" clip-rule="evenodd" d="M12.5 17.5C19.4036 17.5 25 13.6944 25 9C25 4.30558 19.4036 0.5 12.5 0.5C5.59644 0.5 0 4.30558 0 9C0 13.6944 5.59644 17.5 12.5 17.5ZM15.5 9C15.5 10.6569 14.1569 12 12.5 12C10.8431 12 9.5 10.6569 9.5 9C9.5 7.34315 10.8431 6 12.5 6C14.1569 6 15.5 7.34315 15.5 9ZM19 9C19 12.5899 16.0899 15.5 12.5 15.5C8.91015 15.5 6 12.5899 6 9C6 5.41015 8.91015 2.5 12.5 2.5C16.0899 2.5 19 5.41015 19 9Z" fill="#DA5DBF"/>
</svg>
