<svg width="22" height="20" viewBox="0 0 22 20" fill="none" xmlns="http://www.w3.org/2000/svg">
<path fill-rule="evenodd" clip-rule="evenodd" d="M15.5 9.13397C16.1667 9.51888 16.1667 10.4811 15.5 10.866L9.5 14.3301C8.83333 14.715 8 14.2339 8 13.4641V6.5359C8 5.7661 8.83333 5.28497 9.5 5.66987L15.5 9.13397ZM15 10L9 13.4641V6.5359L15 10Z" fill="#562EE5"/>
<path fill-rule="evenodd" clip-rule="evenodd" d="M0 7C0 3.13401 3.13401 0 7 0H15C18.866 0 22 3.13401 22 7V13C22 16.866 18.866 20 15 20H7C3.13401 20 0 16.866 0 13V7ZM7 1H15C18.3137 1 21 3.68629 21 7V13C21 16.3137 18.3137 19 15 19H7C3.68629 19 1 16.3137 1 13V7C1 3.68629 3.68629 1 7 1Z" fill="#562EE5"/>
</svg>
