<svg width="165" height="37" viewBox="0 0 165 37" fill="none" xmlns="http://www.w3.org/2000/svg">
<path d="M144.962 18.6063C144.962 14.0681 141.559 10.397 136.752 10.397C132.04 10.397 128.685 13.927 128.685 18.7775C128.685 23.6522 132.135 27.2065 137.085 27.2065C140.226 27.2065 142.867 25.789 144.509 22.9076L141.178 21.3467C140.393 22.7873 138.679 23.7239 137.085 23.7239C135.063 23.7239 132.731 22.1873 132.588 20.0505H144.842C144.921 19.5731 144.96 19.0902 144.962 18.6063ZM132.659 17.2188C132.945 15.0578 134.42 13.6414 136.776 13.6414C139.108 13.6414 140.535 15.0289 140.726 17.2188H132.659Z" fill="black"/>
<path d="M99.0905 10.3936C94.2597 10.3936 90.8336 13.9005 90.8336 18.8469C90.8336 23.7448 94.2597 27.2031 99.1387 27.2031C104.041 27.2031 107.467 23.7448 107.467 18.9186C107.467 13.9479 103.945 10.3936 99.0905 10.3936ZM99.1387 23.5286C96.7106 23.5286 95.2119 21.704 95.2119 18.87C95.2119 15.9886 96.7347 14.0196 99.1387 14.0196C101.566 14.0196 103.088 15.9644 103.088 18.87C103.088 21.7283 101.59 23.5286 99.1387 23.5286Z" fill="black"/>
<path d="M81.8892 10.3982C79.9104 10.3982 78.4197 11.0804 76.9289 12.772H76.4397C75.4382 11.2446 73.8043 10.3982 71.9709 10.3982C71.0556 10.3892 70.1512 10.5997 69.3322 11.0124C68.5133 11.4251 67.8032 12.0282 67.2604 12.772H66.7711L66.7471 12.7489V10.7278H62.6519V26.8505H67.0771V18.5533C67.0771 15.8742 68.1954 14.2994 70.1284 14.2994C71.9217 14.2994 73.0858 15.6395 73.0858 17.6838V26.8505H77.5339V18.5533C77.5339 15.8939 78.6523 14.2994 80.6094 14.2994C82.3785 14.2994 83.5198 15.6395 83.5198 17.708V26.8505H87.969V17.1669C87.969 12.9605 85.7324 10.3982 81.8892 10.3982Z" fill="black"/>
<path d="M154.802 21.2587H154.486C154.486 20.972 152.556 15.866 151.291 12.7025L150.501 10.7241H146.042L152.367 26.9035L149.875 33.0687H154.302L163.411 10.7299H158.95L158.222 12.4215L155.755 18.5808C155.06 20.3013 154.775 21.0992 154.802 21.2587Z" fill="black"/>
<path d="M119.74 10.3979C117.76 10.3979 116.059 11.2674 114.918 12.8191H114.452L114.406 12.796V10.7275H110.308V26.8502H114.733V18.6004C114.733 15.9688 115.994 14.3223 118.064 14.3223C119.997 14.3223 121.418 15.7791 121.418 18.0824V26.8491H125.843V17.1204C125.843 13.1718 123.281 10.3979 119.74 10.3979Z" fill="black"/>
<path d="M32.5978 1.15625C23.037 1.15625 15.3542 8.96094 15.3542 18.5C15.3542 28.1177 23.1126 35.8438 32.5955 35.8438C42.0785 35.8438 49.8438 28.0391 49.8438 18.5C49.8438 8.96094 42.0807 1.15625 32.5978 1.15625ZM32.5978 24.9646C29.0709 24.9646 26.172 22.0474 26.172 18.5C26.172 14.9526 29.0709 12.0354 32.5978 12.0354C36.1247 12.0354 39.0248 14.9526 39.0248 18.5C38.9457 22.0474 36.1247 24.9646 32.5978 24.9646Z" fill="#8B3FFD"/>
<path d="M15.3542 6.19531V31.4224H9.24459L1.40709 6.19531H15.3542Z" fill="#8B3FFD"/>
</svg>
